<?xml version="1.0" encoding="iso-8859-1"?>
<!-- Uploaded to: SVG Repo, www.svgrepo.com, Generator: SVG Repo Mixer Tools -->
<svg height="800px" width="800px" version="1.1" id="Layer_1" xmlns="http://www.w3.org/2000/svg" xmlns:xlink="http://www.w3.org/1999/xlink" 
	 viewBox="0 0 512 512" xml:space="preserve">
<path style="fill:#FFFFFF;" d="M256,504C119.248,504,8,392.752,8,256C8,119.256,119.248,8,256,8s248,111.256,248,248
	C504,392.752,392.752,504,256,504z"/>
<path style="fill:#E2E2E2;" d="M256,16c132.336,0,240,107.664,240,240S388.336,496,256,496S16,388.336,16,256S123.664,16,256,16
	 M256,0C114.616,0,0,114.616,0,256s114.616,256,256,256s256-114.616,256-256S397.384,0,256,0L256,0z"/>
<circle style="fill:#999999;" cx="255.992" cy="162.24" r="68.928"/>
<path style="fill:#E21B1B;" d="M374.896,383.976c0,0,0,3.216,0-61.008s-70.104-65.4-70.104-65.4h-97.584
	c0,0-70.104,0.784-70.104,65.4c0,64.224,0,61.008,0,61.008H374.896z"/>
</svg>