<?xml version="1.0" encoding="iso-8859-1"?>
<!-- Uploaded to: SVG Repo, www.svgrepo.com, Generator: SVG Repo Mixer Tools -->
<svg fill="#000000" height="800px" width="800px" version="1.1" id="Layer_1" xmlns="http://www.w3.org/2000/svg" xmlns:xlink="http://www.w3.org/1999/xlink" 
	 viewBox="0 0 512.074 512.074" xml:space="preserve">
<g transform="translate(0 -1)">
	<g>
		<g>
			<path d="M409.637,496.008h-34.133v-81.801l-62.234,62.234c-1.664,1.664-3.849,2.5-6.033,2.5c-2.185,0-4.369-0.836-6.033-2.5
				l-45.167-45.167l-45.167,45.167c-3.337,3.336-8.73,3.336-12.066,0l-62.234-62.234v81.801h-34.133
				c-4.71,0-8.533,3.823-8.533,8.533s3.823,8.533,8.533,8.533h42.667h221.867h42.667c4.71,0,8.533-3.823,8.533-8.533
				S414.348,496.008,409.637,496.008z"/>
			<path d="M136.567,342.41h3.533l64.734,64.734l45.167-45.167c3.337-3.336,8.738-3.336,12.066,0l45.167,45.167l64.734-64.734h3.533
				c4.719,0,8.533-3.823,8.533-8.533v-34.133c0-4.719-3.814-8.533-8.533-8.533H245.572c2.389-4.403,5.103-9.771,7.893-16.017
				c9.037-8.875,20.702-12.646,36.54-17.459c16.785,7.509,32.034,11.426,45.474,11.426c7.945,0,15.283-1.314,21.973-3.951
				c22.332-8.772,30.549-29.286,33.647-37.009c0.282-0.708,0.512-1.289,0.7-1.715c1.946-4.25,0.026-9.301-4.198-11.298l-1.476-0.777
				c-23.817-12.749-45.175-16.094-63.514-9.907c-16.094,5.427-29.022,17.997-38.554,37.205c-7.492,2.278-14.362,4.48-20.676,7.151
				c2.466-7.936,4.676-16.521,6.366-25.668c0.205-0.538,0.495-1.041,0.589-1.613c0.085-0.538-0.026-1.058-0.043-1.587
				c2.492-14.729,3.575-30.788,2.261-47.693c10.266,1.929,19.985,2.918,29.107,2.918c19.473,0,36.318-4.395,50.338-13.175
				c20.343-12.732,33.818-34.099,40.047-63.488l0.367-1.655c0.512-2.21,0.137-4.531-1.058-6.451
				c-1.186-1.92-3.098-3.294-5.299-3.814c-9.856-2.304-88.226-18.364-121.284,45.295c-3.994-12.698-9.651-25.617-17.237-38.596
				c-0.316-27.392-8.61-49.306-24.755-65.092c-13.278-12.988-38.775-28.237-84.727-27.187l-1.382,0.026
				c-4.719,0-8.533,3.814-8.533,8.533l-0.034,1.741c-0.247,10.027-0.981,40.542,22.229,64.026
				c18.014,18.236,46.071,27.605,83.319,28.032c11.537,20.147,18.039,40.021,20.932,58.914c0.017,0.162-0.009,0.316,0.017,0.486
				c0.017,0.119,0.068,0.23,0.094,0.358c1.195,8.03,1.749,15.872,1.801,23.475c-4.992-6.878-10.991-12.57-18.091-16.905
				c-17.843-10.88-42.342-13.09-68.992-6.204l-0.725,0.179c-4.531,1.109-7.339,5.641-6.306,10.189l0.265,1.212
				c1.69,8.26,6.861,33.374,30.089,47.889c10.684,6.665,23.552,10.01,38.443,10.01c6.289,0,12.988-0.666,19.985-1.86
				c-3.234,13.269-7.518,24.969-11.776,34.611c-0.29,0.538-0.546,1.058-0.708,1.63c-5.043,11.187-9.907,19.396-12.715,23.817
				h-89.395c-4.71,0-8.533,3.814-8.533,8.533v34.133C128.034,338.587,131.857,342.41,136.567,342.41z M328.064,220.674
				c17.092-5.769,35.217,1.382,45.047,6.221c-3.379,7.296-9.694,17.638-21.897,22.434c-10.24,4.019-23.117,3.61-38.349-1.058
				c5.777-1.903,11.554-3.345,17.528-4.343c4.651-0.768,7.791-5.163,7.014-9.813c-0.768-4.651-5.146-7.799-9.813-7.014
				c-5.103,0.845-10.138,2.099-15.155,3.541C317.167,226.024,322.355,222.602,328.064,220.674z M373.828,101.625
				c-3.157,12.262-10.778,33.365-30.891,45.952c-14.746,9.242-33.92,12.373-57.131,9.506c0.29-0.196,0.606-0.393,0.896-0.589
				c16.597-10.923,30.942-20.361,48.444-24.704c4.574-1.135,7.364-5.769,6.229-10.334c-1.143-4.582-5.803-7.364-10.342-6.229
				c-19.422,4.821-35.081,14.771-51.396,25.489C302.558,96.079,351.829,98.101,373.828,101.625z M183.791,59.778
				c13.005,7.057,24.38,15.565,34.995,25.882c-25.028-2.287-43.93-9.745-56.311-22.281c-14.822-15.002-17.126-33.929-17.357-45.295
				c35.772,0.546,55.424,12.279,65.732,22.357c8.081,7.902,13.568,18.039,16.674,30.08C216.678,60.46,205.09,51.919,191.94,44.776
				c-4.147-2.244-9.318-0.717-11.571,3.422C178.116,52.345,179.652,57.525,183.791,59.778z M226.611,208.77
				c4.002,2.014,7.97,4.335,12.023,6.818c-14.916,1.229-27.29-1.101-36.855-7.066c-12.894-8.055-18.355-21.316-20.821-30.097
				c19.174-3.652,36.241-1.63,48.555,5.879c5.854,3.576,10.675,8.602,14.652,14.737c-3.268-1.937-6.528-3.831-9.873-5.521
				c-4.216-2.133-9.344-0.418-11.46,3.789C220.706,201.516,222.404,206.653,226.611,208.77z"/>
			<path d="M307.237,427.741c-2.185,0-4.369-0.836-6.033-2.5l-45.167-45.167l-45.167,45.167c-3.337,3.336-8.73,3.336-12.066,0
				l-62.234-62.234v27.068l68.267,68.267l45.167-45.167c3.337-3.337,8.73-3.337,12.066,0l45.167,45.167l68.267-68.267v-27.068
				l-62.234,62.234C311.606,426.905,309.422,427.741,307.237,427.741z"/>
		</g>
	</g>
</g>
</svg>